# xmcd
#
# Track frame offsets:
#	150
#	14499
#	27679
#	40162
#	53370
#	66912
#	79785
#	92232
#	106779
#	119121
#	131659
#	142972
#	154787
#	166898
#	177959
#	193766
#	208178
#
# Disc length: 2974 seconds
#
# Revision: 1
# Processed by: cddbd v1.5.1PL2 Copyright (c) Steve Scherf et al.
# Submitted via: EasyCDDAExtractor 6.2.0.3
#
DISCID=ef0b9c11
DTITLE=Various Artist - 10 Blues Legends CD 7
DYEAR=1900
DGENRE=
TTITLE0=Memphis Slim - Grinder Man Blues
TTITLE1=Memphis Slim - Empty Room Blues
TTITLE2=Memphis Slim - Old Taylor
TTITLE3=Memphis Slim - Jasper's Gal
TTITLE4=Memphis Slim - You Got To Help Me Some
TTITLE5=Memphis Slim - Maybe I'll Loan You A Dime
TTITLE6=Memphis Slim - Whiskey And Gin Blues
TTITLE7=Memphis Slim - Send Me Your Love
TTITLE8=Memphis Slim - Don't Ration My Love
TTITLE9=Memphis Slim - Pacemaker Boogie
TTITLE10=Memphis Slim - Nobody Loves Me (Everyday I Have The Blues)
TTITLE11=Memphis Slim - Blue And Lonesome
TTITLE12=B. B. King - Miss Martha King
TTITLE13=B. B. King - When Your Baby Packs Up
TTITLE14=B. B. King - The Other Night Blues
TTITLE15=B. B. King - B. B's Boogie
TTITLE16=B. B. King - Walking And Crying
EXTD=
EXTT0=
EXTT1=
EXTT2=
EXTT3=
EXTT4=
EXTT5=
EXTT6=
EXTT7=
EXTT8=
EXTT9=
EXTT10=
EXTT11=
EXTT12=
EXTT13=
EXTT14=
EXTT15=
EXTT16=
PLAYORDER=
